<svg width="45" height="45" viewBox="0 0 45 45" fill="none" xmlns="http://www.w3.org/2000/svg">
<path d="M41.0244 0H31.6048C29.4123 0 27.6291 1.78317 27.6291 3.97564V13.3952C27.6291 13.6271 27.4402 13.816 27.2084 13.816H17.368V3.97564C17.368 1.78317 15.5848 0 13.3924 0H3.97564C1.78317 0 0 1.78317 0 3.97564V13.3952C0 15.5877 1.78317 17.3709 3.97564 17.3709H27.2084C29.4008 17.3709 31.184 15.5877 31.184 13.3952V3.97564C31.184 3.7438 31.3729 3.55489 31.6048 3.55489H41.0244C41.2562 3.55489 41.4451 3.7438 41.4451 3.97564V41.0244C41.4451 41.2562 41.2562 41.4451 41.0244 41.4451H31.6048C31.3729 41.4451 31.184 41.2562 31.184 41.0244V31.6048C31.184 29.4123 29.4008 27.6291 27.2084 27.6291H17.368V20.1014L13.8131 18.7505V27.6291H3.97564C1.78317 27.6291 0 29.4123 0 31.6048V41.0244C0 43.2168 1.78317 45 3.97564 45H13.3952C15.5877 45 17.3709 43.2168 17.3709 41.0244V33.9174L13.816 32.5665V41.0244C13.816 41.2562 13.6271 41.4451 13.3952 41.4451H3.97564C3.7438 41.4451 3.55489 41.2562 3.55489 41.0244V31.6048C3.55489 31.3729 3.7438 31.184 3.97564 31.184H27.2084C27.4402 31.184 27.6291 31.3729 27.6291 31.6048V41.0244C27.6291 43.2168 29.4123 45 31.6048 45H41.0244C43.2168 45 45 43.2168 45 41.0244V3.97564C45 1.78317 43.2168 0 41.0244 0ZM13.8131 13.8131H3.97564C3.7438 13.8131 3.55489 13.6242 3.55489 13.3924V3.97564C3.55489 3.7438 3.7438 3.55489 3.97564 3.55489H13.3952C13.6271 3.55489 13.816 3.7438 13.816 3.97564V13.816L13.8131 13.8131Z" fill="#2DBFF9"/>
</svg>
